HIERARCHY
ROOT SpineBase
{
  OFFSET 0.000000 0.000000 0.000000
  CHANNELS 6 Xposition Yposition Zposition Zrotation Xrotation Yrotation
  JOINT SpineMid
  {
    OFFSET 0.000000 33.702676 0.000000
    CHANNELS 3 Zrotation Xrotation Yrotation
    JOINT SpineShoulder
    {
      OFFSET -0.124276 24.912945 -0.793327
      CHANNELS 3 Zrotation Xrotation Yrotation
      JOINT Neck
      {
        OFFSET -0.084066 8.199052 -0.618164
        CHANNELS 3 Zrotation Xrotation Yrotation
        JOINT Head
        {
          OFFSET -1.289963 14.489874 -2.052893
          CHANNELS 3 Zrotation Xrotation Yrotation
          End Site
          {
            OFFSET 0 0 0
          }
        }
      }
      JOINT ShoulderLeft
      {
        OFFSET -16.114326 -3.406380 8.301739
        CHANNELS 3 Zrotation Xrotation Yrotation
        JOINT ElbowLeft
        {
          OFFSET -0.170474 -24.714143 1.078385
          CHANNELS 3 Zrotation Xrotation Yrotation
          JOINT WristLeft
          {
            OFFSET 10.331576 -9.466840 -24.521981
            CHANNELS 3 Zrotation Xrotation Yrotation
            JOINT HandLeft
            {
              OFFSET 5.420639 -3.671305 0.847501
              CHANNELS 3 Zrotation Xrotation Yrotation
              JOINT HandTipLeft
              {
                OFFSET 4.649979 -2.914678 -1.383072
                CHANNELS 3 Zrotation Xrotation Yrotation
                End Site
                {
                  OFFSET 0 0 0
                }
              }
              JOINT ThumbLeft
              {
                OFFSET 3.571047 6.444357 -2.463756
                CHANNELS 3 Zrotation Xrotation Yrotation
                End Site
                {
                  OFFSET 0 0 0
                }
              }
            }
          }
        }
      }
      JOINT ShoulderRight
      {
        OFFSET 15.867495 -1.372325 -5.586943
        CHANNELS 3 Zrotation Xrotation Yrotation
        JOINT ElbowRight
        {
          OFFSET 10.838923 -15.178216 -11.333986
          CHANNELS 3 Zrotation Xrotation Yrotation
          JOINT WristRight
          {
            OFFSET -3.144415 20.666530 -4.322777
            CHANNELS 3 Zrotation Xrotation Yrotation
            JOINT HandRight
            {
              OFFSET -2.039807 5.015716 2.531151
              CHANNELS 3 Zrotation Xrotation Yrotation
              JOINT HandTipRight
              {
                OFFSET -1.683902 6.071064 -0.548225
                CHANNELS 3 Zrotation Xrotation Yrotation
                End Site
                {
                  OFFSET 0 0 0
                }
              }
              JOINT ThumbRight
              {
                OFFSET -4.425313 0.476973 3.180376
                CHANNELS 3 Zrotation Xrotation Yrotation
                End Site
                {
                  OFFSET 0 0 0
                }
              }
            }
          }
        }
      }
    }
  }
  JOINT HipLeft
  {
    OFFSET -7.442364 -0.028656 -1.382147
    CHANNELS 3 Zrotation Xrotation Yrotation
    JOINT KneeLeft
    {
      OFFSET -1.964735 -34.846309 0.124016
      CHANNELS 3 Zrotation Xrotation Yrotation
      JOINT AnkleLeft
      {
        OFFSET 1.694070 -38.258495 17.084401
        CHANNELS 3 Zrotation Xrotation Yrotation
        JOINT FootLeft
        {
          OFFSET -5.017410 -6.305953 -4.957642
          CHANNELS 3 Zrotation Xrotation Yrotation
          End Site
          {
            OFFSET 0 0 0
          }
        }
      }
    }
  }
  JOINT HipRight
  {
    OFFSET 6.210712 1.107799 -6.349581
    CHANNELS 3 Zrotation Xrotation Yrotation
    JOINT KneeRight
    {
      OFFSET 6.133849 -33.408404 -3.897274
      CHANNELS 3 Zrotation Xrotation Yrotation
      JOINT AnkleRight
      {
        OFFSET 1.557701 -39.129277 17.700406
        CHANNELS 3 Zrotation Xrotation Yrotation
        JOINT FootRight
        {
          OFFSET -2.932836 -8.020210 -6.760796
          CHANNELS 3 Zrotation Xrotation Yrotation
          End Site
          {
            OFFSET 0 0 0
          }
        }
      }
    }
  }
}
MOTION
Frames: 10
Frame Time: 0.033333
56.714173 80.856062 359.248768 -0.000000 0.000000 19.993034 -0.000000 0.000000 -19.993034 -0.000000 0.000000 0.000000 -0.000000 0.000000 0.000000 0.000000 0.000000 0.000000 -0.000000 0.000000 0.000000 -0.000000 0.000000 0.000000 -0.000000 0.000000 0.000000 -0.000000 0.000000 0.000000 0.000000 0.000000 0.000000 0.000000 0.000000 0.000000 -0.000000 0.000000 0.000000 -0.000000 0.000000 0.000000 -0.000000 0.000000 0.000000 -0.000000 0.000000 0.000000 0.000000 0.000000 0.000000 0.000000 0.000000 0.000000 -0.000000 0.000000 -19.993034 -0.000000 0.000000 0.000000 -0.000000 0.000000 0.000000 0.000000 0.000000 0.000000 -0.000000 0.000000 -19.993034 -0.000000 0.000000 0.000000 -0.000000 0.000000 0.000000 0.000000 0.000000 0.000000
56.743220 80.871762 359.254864 -0.006674 0.017135 19.880638 0.000449 -0.018383 -19.880637 -0.000000 0.000000 0.000000 -0.000000 0.000000 0.000000 0.000000 0.000000 0.000000 -0.000000 0.000000 0.000000 -0.000000 0.000000 0.000000 -0.000000 0.000000 0.000000 0.304862 -1.321270 -2.251626 0.000000 0.000000 0.000000 0.000000 0.000000 0.000000 -0.000000 0.000000 0.000000 -0.000000 0.000000 0.000000 -0.000000 0.000000 0.000000 -0.577250 -1.533459 -0.485294 0.000000 0.000000 0.000000 0.000000 0.000000 0.000000 0.000449 -0.018383 -19.880637 -0.000000 0.000000 0.000000 -1.506046 -1.333909 2.224770 0.000000 0.000000 0.000000 0.000449 -0.018383 -19.880637 -0.000000 0.000000 0.000000 0.568617 -0.760930 -0.198766 0.000000 0.000000 0.000000
56.770362 80.884703 359.273052 -0.016109 0.017423 19.806361 0.009252 -0.021851 -19.806357 -0.000000 0.000000 0.000000 -0.000000 0.000000 0.000000 0.000000 0.000000 0.000000 -0.791279 0.199255 -0.034527 0.791404 -0.198759 0.037276 -0.000000 0.000000 0.000000 0.228731 -2.414156 -3.981288 0.000000 0.000000 0.000000 0.000000 0.000000 0.000000 -0.667085 -0.757534 -0.047678 0.871357 -0.099926 -0.049991 -1.182563 0.046613 0.262533 -0.079998 -1.723972 -0.979467 0.000000 0.000000 0.000000 0.000000 0.000000 0.000000 0.009252 -0.021851 -19.806357 -0.000000 0.000000 0.000000 -2.806570 -2.632766 4.229625 0.000000 0.000000 0.000000 0.009252 -0.021851 -19.806357 -0.000000 0.000000 0.000000 1.038372 -1.246065 -0.413528 0.000000 0.000000 0.000000
56.795597 80.894885 359.303332 -0.028306 0.000858 19.770070 0.026347 -0.010382 -19.770068 -0.000000 0.000000 0.000000 -0.000000 0.000000 0.000000 0.000000 0.000000 0.000000 -1.044392 0.141551 -0.045258 1.044506 -0.140703 0.047831 -0.884235 0.368825 0.347506 0.655656 -3.614289 -5.504879 0.000000 0.000000 0.000000 0.000000 0.000000 0.000000 -0.955656 -0.927948 0.043745 1.243872 -0.220553 -0.174922 -1.577192 -0.093489 0.277362 -0.137987 -1.778005 -1.135595 0.000000 0.000000 0.000000 0.000000 0.000000 0.000000 0.026347 -0.010382 -19.770068 -0.000000 0.000000 0.000000 -3.912812 -3.880344 6.024559 0.000000 0.000000 0.000000 0.026347 -0.010382 -19.770068 -0.000000 0.000000 0.000000 1.405241 -1.448107 -0.647091 0.000000 0.000000 0.000000
56.818927 80.902308 359.345704 -0.043264 -0.032563 19.771651 0.051729 0.016008 -19.771670 -0.000000 0.000000 0.000000 -0.000000 0.000000 0.000000 0.000000 0.000000 0.000000 -1.203387 -0.020879 -0.052582 1.203367 0.021978 0.052132 -0.931429 0.710596 0.851378 -0.111207 -4.496373 -6.631936 0.000000 0.000000 0.000000 0.000000 0.000000 0.000000 -1.214130 -0.960530 0.213491 1.573651 -0.389242 -0.364067 -1.838051 -0.340493 0.209153 -0.206359 -1.312844 -1.063771 0.000000 0.000000 0.000000 0.000000 0.000000 0.000000 0.051729 0.016008 -19.771670 -0.000000 0.000000 0.000000 -4.837038 -5.065123 7.621400 0.000000 0.000000 0.000000 0.051729 0.016008 -19.771670 -0.000000 0.000000 0.000000 1.667503 -1.365147 -0.900472 0.000000 0.000000 0.000000
56.840350 80.906972 359.400169 -0.060981 -0.082839 19.811005 0.085448 0.057268 -19.811092 -0.000000 0.000000 0.000000 -0.803213 0.105711 -0.103726 0.000000 0.000000 0.000000 -1.268542 -0.288306 -0.056547 1.268273 0.289487 0.050151 -0.843534 1.163671 1.552464 -1.349221 -5.181921 -7.411306 0.000000 0.000000 0.000000 0.000000 0.000000 0.000000 -1.443111 -0.855904 0.462401 1.860389 -0.606413 -0.616060 -1.963693 -0.693594 0.055695 -0.293106 -0.339035 -0.763237 0.000000 0.000000 0.000000 0.000000 0.000000 0.000000 0.085448 0.057268 -19.811092 -0.000000 0.000000 0.000000 -5.591365 -6.179487 9.032515 0.000000 0.000000 0.000000 0.085448 0.057268 -19.811092 -0.000000 0.000000 0.000000 1.825712 -1.000488 -1.172765 0.000000 0.000000 0.000000
56.872913 80.915754 359.459111 -0.072361 -0.135629 19.872752 0.114156 0.102955 -19.872940 -0.000000 0.000000 0.000000 -1.028412 0.086835 -0.137322 0.000000 0.000000 0.000000 -1.244539 -0.677851 -0.056974 1.243952 0.678928 0.042242 -0.842551 1.685513 2.339738 -3.092912 -5.784200 -7.931603 0.000000 0.000000 0.000000 0.000000 0.000000 0.000000 -1.857852 -1.073148 0.615078 2.337382 -0.321864 -0.759495 -0.937050 -0.287686 -0.330842 -1.320472 1.293346 0.229108 0.000000 0.000000 0.000000 0.000000 0.000000 0.000000 0.114156 0.102955 -19.872940 -0.000000 0.000000 0.000000 -8.850011 0.846635 5.956398 0.000000 0.000000 0.000000 0.114156 0.102955 -19.872940 -0.000000 0.000000 0.000000 1.919446 -3.668601 -0.222070 0.000000 0.000000 0.000000
56.913522 80.937145 359.530533 -0.083635 -0.197198 19.876733 0.145700 0.157015 -19.877077 -0.000000 0.000000 0.000000 -1.094642 0.096128 -0.145756 0.000000 0.000000 0.000000 -1.083567 -1.265734 -0.050493 1.082715 1.266463 0.026556 -0.447459 2.239972 3.245669 -5.839631 -5.807376 -7.463637 0.000000 0.000000 0.000000 0.000000 0.000000 0.000000 -2.174066 -0.740868 1.100697 2.809798 -0.825606 -1.220745 -1.271581 -0.336112 -0.333548 0.003480 3.731743 0.932951 0.000000 0.000000 0.000000 0.000000 0.000000 0.000000 0.145700 0.157015 -19.877077 -0.000000 0.000000 0.000000 -7.828418 3.180850 3.576321 0.000000 0.000000 0.000000 0.145700 0.157015 -19.877077 -0.000000 0.000000 0.000000 -0.306057 2.234583 -0.543805 0.000000 0.000000 0.000000
56.927861 80.934105 359.623470 -0.126681 -0.302336 19.906653 0.222055 0.241137 -19.907455 -0.000000 0.000000 0.000000 -0.000000 0.000000 0.000000 0.000000 0.000000 0.000000 -0.874622 -1.806958 -0.039463 0.873812 1.807349 0.011887 0.186560 3.180174 4.750894 -7.090038 -5.973416 -7.964348 0.000000 0.000000 0.000000 0.000000 0.000000 0.000000 -2.311386 -0.159891 1.633935 2.950994 -1.657645 -1.750093 -2.219087 -0.536885 -0.002364 1.361594 5.784514 1.094326 0.000000 0.000000 0.000000 0.000000 0.000000 0.000000 0.222055 0.241137 -19.907455 -0.000000 0.000000 0.000000 -5.666715 3.636671 1.638682 0.000000 0.000000 0.000000 0.222055 0.241137 -19.907455 -0.000000 0.000000 0.000000 -0.773694 3.271113 -0.508702 0.000000 0.000000 0.000000
56.959376 80.902930 359.693956 -0.203451 -0.376439 19.937353 0.319623 0.284499 -19.938815 -0.000000 0.000000 0.000000 -0.000000 0.000000 0.000000 0.000000 0.000000 0.000000 -0.550175 -2.145974 -0.019490 0.549830 2.146062 -0.001113 1.325778 3.794606 5.807064 -11.241483 -5.502211 -6.924007 0.000000 0.000000 0.000000 0.000000 0.000000 0.000000 -2.280317 0.831248 2.333360 2.790532 -2.058662 -2.330282 -2.749930 -3.518427 -0.809519 1.609202 8.306829 1.763693 0.000000 0.000000 0.000000 0.000000 0.000000 0.000000 0.319623 0.284499 -19.938815 -0.268578 0.795058 -0.083132 -3.004068 1.200699 1.044336 0.000000 0.000000 0.000000 0.319623 0.284499 -19.938815 -0.000000 0.000000 0.000000 0.858946 3.571689 -2.009855 0.000000 0.000000 0.000000
